PathFileType	4	(X/Y/Z)	Kaydara	
DataRate	CameraRate	NumFrames	NumMarkers	Units	OrigDataRate	OrigDataStartFrame	OrigNumFrames	
240.00	240.00	4	72	mm	240.00	134	355	
Frame#	Time	Hips			RightUpLeg			RightLeg			RightFoot			RightFoot_End			LeftUpLeg			LeftLeg			LeftFoot			LeftFoot_End			Spine			Spine1			Spine2			Spine3			Neck			Head			Head_End			RightShoulder			RightArm			RightForeArm			RightHand			RightHandThumb1			RightHandThumb2			RightHandThumb3			RightHandThumb3_End			RightInHandIndex			RightHandIndex1			RightHandIndex2			RightHandIndex3			RightHandIndex3_End			RightInHandMiddle			RightHandMiddle1			RightHandMiddle2			RightHandMiddle3			RightHandMiddle3_End			RightInHandRing			RightHandRing1			RightHandRing2			RightHandRing3			RightHandRing3_End			RightInHandPinky			RightHandPinky1			RightHandPinky2			RightHandPinky3			RightHandPinky3_End			LeftShoulder			LeftArm			LeftForeArm			LeftHand			LeftHandThumb1			LeftHandThumb2			LeftHandThumb3			LeftHandThumb3_End			LeftInHandIndex			LeftHandIndex1			LeftHandIndex2			LeftHandIndex3			LeftHandIndex3_End			LeftInHandMiddle			LeftHandMiddle1			LeftHandMiddle2			LeftHandMiddle3			LeftHandMiddle3_End			LeftInHandRing			LeftHandRing1			LeftHandRing2			LeftHandRing3			LeftHandRing3_End			LeftInHandPinky			LeftHandPinky1			LeftHandPinky2			LeftHandPinky3			LeftHandPinky3_End			
		X1	Y1	Z1	X2	Y2	Z2	X3	Y3	Z3	X4	Y4	Z4	X5	Y5	Z5	X6	Y6	Z6	X7	Y7	Z7	X8	Y8	Z8	X9	Y9	Z9	X10	Y10	Z10	X11	Y11	Z11	X12	Y12	Z12	X13	Y13	Z13	X14	Y14	Z14	X15	Y15	Z15	X16	Y16	Z16	X17	Y17	Z17	X18	Y18	Z18	X19	Y19	Z19	X20	Y20	Z20	X21	Y21	Z21	X22	Y22	Z22	X23	Y23	Z23	X24	Y24	Z24	X25	Y25	Z25	X26	Y26	Z26	X27	Y27	Z27	X28	Y28	Z28	X29	Y29	Z29	X30	Y30	Z30	X31	Y31	Z31	X32	Y32	Z32	X33	Y33	Z33	X34	Y34	Z34	X35	Y35	Z35	X36	Y36	Z36	X37	Y37	Z37	X38	Y38	Z38	X39	Y39	Z39	X40	Y40	Z40	X41	Y41	Z41	X42	Y42	Z42	X43	Y43	Z43	X44	Y44	Z44	X45	Y45	Z45	X46	Y46	Z46	X47	Y47	Z47	X48	Y48	Z48	X49	Y49	Z49	X50	Y50	Z50	X51	Y51	Z51	X52	Y52	Z52	X53	Y53	Z53	X54	Y54	Z54	X55	Y55	Z55	X56	Y56	Z56	X57	Y57	Z57	X58	Y58	Z58	X59	Y59	Z59	X60	Y60	Z60	X61	Y61	Z61	X62	Y62	Z62	X63	Y63	Z63	X64	Y64	Z64	X65	Y65	Z65	X66	Y66	Z66	X67	Y67	Z67	X68	Y68	Z68	X69	Y69	Z69	X70	Y70	Z70	X71	Y71	Z71	X72	Y72	Z72	

134	0.554	6921.0129	906.651	56.2195	7001.048472636231	892.7381529351339	4.846445564098946	6922.536378014984	490.59238319176774	-81.3375851236604	6914.655151238074	108.26430244058974	-158.18378424798166	6839.730011836041	32.54859821717833	0.5211868261731585	6849.349388803592	891.8307244830193	118.96685516887736	6786.058242229379	488.09922537485585	211.6253629221059	6751.185683595008	56.7301467967777	298.489095099303	6617.627575418176	-17.299950994869675	183.18982100149105	6881.091368887694	1034.8683633776172	6.577138592105829	6835.895896394803	1104.3408108160895	-44.11753087741088	6784.348685472563	1171.014602458616	-100.13922379227951	6728.763464898927	1224.9489358403964	-159.24322289615986	6668.7653560284325	1282.6851754951672	-221.65999078482824	6612.697890430303	1334.9185989867303	-277.65519476300864	6493.30844358397	1426.5788717543012	-330.893582807916	6714.498742388039	1268.9080546149553	-221.0461507816948	6796.1310747192465	1287.6436195359415	-337.96007583532804	6825.652399348307	1017.9476981246273	-373.64659377017415	6895.993597573909	854.4988264481357	-526.7533351598174	6910.487980625178	856.5534050987483	-548.2223713830826	6902.593227339319	854.689452928721	-574.4009360618678	6896.446352440356	850.7341956839837	-592.1288607142391	6890.7667916292	845.1637049032661	-606.4777034257613	6911.818347323314	846.7013560351533	-548.1184748320142	6923.517583239715	827.1601484650813	-580.0801986829176	6919.229793506032	816.31337873138	-603.7706929137925	6909.362426949109	814.7613728386222	-617.2235156195397	6896.337477457256	816.9785548649686	-627.4980148821505	6909.055270942764	840.2851525841047	-545.7072391473996	6918.975352590724	817.7539343171222	-575.5770918210626	6913.878465274849	805.1381675366534	-601.0081137371824	6901.773217798924	802.8915501789419	-617.0368869228912	6887.42402263214	805.1356517386347	-628.1810611095508	6906.928904297299	836.2015629806564	-543.1764557411964	6914.337086074371	812.3202869325276	-567.7148688761397	6909.450318762003	800.563374563145	-589.404393269804	6897.537879899564	797.9922315682745	-604.6124992325908	6883.9341921591595	799.9107621443356	-614.9709744162527	6903.160081754208	832.4487306480071	-539.425264071015	6908.052197151258	808.0599512375743	-559.5904427530812	6903.4126662995295	797.562770068627	-576.108683380634	6894.372305248497	795.163638755915	-586.7904002913759	6882.119425268754	796.5617336524002	-595.7297099524307	6661.994055496162	1258.520525384826	-179.23740738758937	6580.647159810289	1182.8924285342741	-96.00178614385075	6712.1549648736855	1024.372996029861	-253.72541238700052	6877.613508424956	897.6267773913582	-403.71350119277145	6865.118575485025	904.2599570838437	-436.6795393280096	6863.519936223654	891.6947234771944	-475.3930462983092	6861.744238198112	880.371984928858	-501.1625544949811	6859.69724761293	868.732167212693	-521.6269701059787	6860.014400779718	896.8128485422005	-435.0217093489368	6837.518299093349	880.9804676719007	-480.24950781448115	6830.32020137555	863.7379802237845	-513.9377110727152	6832.772400798342	852.9254891025537	-533.5573002793857	6839.474734357419	843.9133659251037	-548.9031102850977	6859.3977368616925	890.0717778922823	-430.3145718433052	6837.119747391917	870.9848774408399	-471.8816831037018	6829.267354327874	851.3240049598708	-507.87717929653263	6832.226902723764	837.87321489834	-531.1803686584143	6839.560990318418	827.8149888408599	-547.7929897977615	6859.441447187557	885.7564691279895	-425.81357347109883	6839.236862031236	865.031301735818	-459.0965938514655	6832.431055869903	847.0598288136496	-489.62318716867605	6835.306166874935	833.6420503850328	-511.6510394765387	6842.211730592155	823.9746553367054	-527.0578762812972	6860.889408248645	880.9008942090846	-419.48314694494246	6842.925583331928	859.0384282517239	-446.0507012361816	6837.624419320877	843.4349314882263	-469.0285269767095	6839.793454850001	833.0613689913118	-484.38622278744174	6845.952050633425	824.1600464717234	-497.6258421695744
135	0.558	6921.0129	906.651	56.2195	7000.891098337874	892.6584854354484	4.7658789132425365	6922.309147030566	490.4955389341348	-81.25199363763306	6914.89302586123	108.24363734096377	-158.23698917384542	6839.9626527934515	32.50545033485407	0.45436171565369143	6849.496291337603	891.9058168319646	119.04439318559817	6786.284461023002	488.1670326846813	211.72112639848947	6751.304020776356	56.792797966696504	298.4352670157629	6617.784026596903	-17.286259141019393	183.12847176417765	6881.141896986095	1034.891426358914	6.593829914474069	6835.973746294939	1104.3996326065783	-44.085058177849554	6784.452436525979	1171.111697131262	-100.09467328321007	6728.884983624308	1225.0776600685983	-159.196219756367	6668.903949243545	1282.8444051617091	-221.61096902358128	6612.849847537504	1335.102481557929	-277.6047764454641	6493.421162578622	1426.7014055246686	-330.8675668552088	6714.6239683292115	1269.0446420308895	-221.00706144030403	6796.388755004226	1287.9408643314052	-338.0096178460188	6825.5443453615535	1018.2282546690666	-374.195665684216	6895.541380920952	855.3956425334226	-528.8026524823405	6910.003999956454	857.7043449508559	-550.3609669415991	6902.053264898512	855.9941060459837	-576.6650032276049	6895.868041189601	852.1245527938003	-594.5005399450274	6890.157055506513	846.6072522122817	-608.9564034931293	6911.3358665526985	847.8063769034693	-550.3429822605583	6922.981981803112	828.4727175557532	-582.6250242423523	6918.645842228241	817.7315440261804	-606.5107128052041	6908.745771541527	816.2251495338239	-620.0283369885974	6895.691968678919	818.4665680168201	-630.3183271638657	6908.5758303161765	841.3230569057218	-547.974312439474	6918.4457473266475	818.9579826405385	-578.1796255962736	6913.296659940179	806.4478647295429	-603.8281861921362	6901.152224499148	804.2516797776527	-619.9373197883872	6886.771588983896	806.5200660650278	-631.0995034733105	6906.453076279183	837.1870492933443	-545.4659052417207	6913.81975594728	813.410035238925	-570.3257789399972	6908.88814028532	801.7351524160392	-592.2090201747743	6896.93824639871	799.2073159537186	-607.49682226751	6883.305160248498	801.146149994812	-617.873264925112	6902.689096355248	833.3654566153542	-541.7274623882166	6907.546480903067	809.030975894733	-562.1970478296003	6902.872230546667	798.5833380923893	-578.87541530609	6893.805126912325	796.2079858946387	-589.6176842623141	6881.526536949104	797.6195722781991	-598.574303699306	6662.135638653718	1258.6825017561437	-179.17950679390378	6580.776865419721	1183.0728570312767	-95.88908015352364	6711.6807485352965	1024.6313957456266	-254.07405652448358	6876.691298670818	898.1423231692245	-404.8653285872798	6864.1441105982285	904.8676936772058	-437.83061076132924	6862.421614827364	892.3005476629805	-476.5415596038957	6860.544616377541	880.9726624109629	-502.3004364142615	6858.400303944746	869.3252905852264	-522.7484182085964	6858.982183749633	897.4253291611193	-436.13797893049184	6836.257900111776	881.6837996042145	-481.2916372279078	6828.895771978545	864.4513285360906	-514.9443130130667	6831.273081460331	853.6119169157341	-534.5635959469429	6837.931700164792	844.5551524710701	-549.9238445350127	6858.3322882191005	890.6681914704785	-431.41011525011277	6835.813763449774	871.6612291533274	-472.89369704281313	6827.7787293291585	852.008805383438	-508.8479514647114	6830.646173757676	838.5243459850319	-532.1495840908933	6837.931577677676	828.4166954148909	-548.7774264953473	6858.358252687381	886.339746355	-426.89613002444867	6837.922430165591	865.676376800033	-460.0923280620043	6830.954081525174	847.7095999460081	-490.5805802247536	6833.7385709889095	834.2579278737735	-512.6056592997495	6840.597516337222	824.5433898782803	-528.0262053572828	6859.793084876067	881.4621970501462	-420.5547404959317	6841.608698937194	859.644683762058	-447.03508819904914	6836.17315671393	844.0405117963775	-469.97885620708945	6838.274051084968	833.6400814688125	-485.3329060108832	6844.390175680612	824.6957631065449	-498.58373539125796
136	0.563	6921.0129	906.651	56.2195	7000.726958438677	892.575852960036	4.682478203187722	6922.075221653477	490.3953663449996	-81.16680553825418	6915.132057725352	108.22153301068684	-158.29370901970873	6840.196626098345	32.46048140744696	0.3839149496994363	6849.649915075734	891.9839218408052	119.12487183957855	6786.518105218744	488.23822581185715	211.82151703861746	6751.423511808597	56.85889719586581	298.38028860471513	6617.943013052291	-17.27062048829126	183.06559511958142	6881.192794545725	1034.914372974796	6.610168465952881	6836.050759303164	1104.4579642217384	-44.05209968427234	6784.553906555283	1171.2079369492026	-100.04833921825856	6729.002561991933	1225.2053325202958	-159.1454110006199	6669.036857589016	1283.0023525014535	-221.55600071707642	6612.994636998931	1335.2849583107638	-277.54642020579234	6493.526472581594	1426.8230906003228	-330.83161737758564	6714.741174948809	1269.1774206062014	-220.9632149215633	6796.6254045665955	1288.2219395026063	-338.04881242587703	6825.407045679003	1018.5018475451182	-374.71209427563815	6895.044482677468	856.2799058174345	-530.7851244923819	6909.472145217984	858.8402071783348	-552.430250630699	6901.464984322261	857.2816348696192	-578.8544600473332	6895.2413144373095	853.4965475014876	-596.7936271493998	6889.499003971496	848.0315650993459	-611.3529425345426	6910.805714371621	848.8967316200072	-552.4970458400767	6922.3960688605275	829.768205863794	-585.0922156861396	6918.011152225341	819.1310972814733	-609.1673447890778	6908.07891803964	817.6694789249277	-622.7465772557686	6894.997253115161	819.9345212458963	-633.0496743143245	6908.049453473893	842.3468953371311	-550.1703627882539	6917.867028041724	820.1459345544774	-580.7038102398005	6912.665381735715	807.7398818290617	-606.563576959592	6900.482462088518	805.593163422563	-622.7491925717768	6886.07149593694	807.8851844693032	-633.9267645933157	6905.930885373702	838.1589546473933	-547.6841104309228	6913.254569501425	814.4848015372993	-572.8586993173212	6908.277906001014	802.8906602740194	-594.930094193905	6896.2912960846115	800.4052477429767	-610.293828180316	6882.629883444393	802.3637973579806	-620.6857627582301	6902.172591361926	834.2692365596375	-543.9583358656841	6906.994349171638	809.9881575643076	-564.7261036356764	6902.285402917281	799.5891819606479	-581.5601043335203	6893.192184417725	797.2370377636896	-592.3601609055689	6880.888885061619	798.6616366744681	-601.3318863722646	6662.275209922708	1258.8459730935836	-179.11597446978206	6580.916855270888	1183.2670314961078	-95.76703842091572	6711.203384455539	1024.8921383684994	-254.39437202992423	6875.742305156653	898.6456544279879	-405.9679949588751	6863.142421704931	905.4608520577826	-438.9272734572453	6861.295174216464	892.8910361671096	-477.63135696500547	6859.316708970745	881.5574926839852	-503.37689463692243	6857.075326988795	869.9021539756397	-523.8064348947919	6857.924543491593	898.0228698543344	-437.2003167936855	6834.97497421307	882.3689610208721	-482.27400507446714	6827.449748133135	865.1453377382162	-515.88756371526	6829.7515558329615	854.2791093562415	-535.5047798857839	6836.365149520382	845.178349539335	-550.8783277421579	6857.2425071656535	891.2498723263122	-432.4527456780752	6834.486862403684	872.3198088916374	-473.84766264751835	6826.2703379189925	852.6745978308777	-509.75691216713415	6829.045004123761	839.1566130491193	-533.054937950828	6836.280321880871	829.0002538313167	-549.6967909114985	6857.25143709115	886.908508187937	-427.92663810899296	6836.588098077037	866.3043677030277	-461.03215026046706	6829.458340489019	848.3412545632227	-491.47894676284386	6832.151627382242	834.8558515750198	-513.4993629805671	6838.962668528788	825.0948550396727	-528.9325215579785	6858.673761615576	882.0094191695076	-421.57548236397736	6840.272660186962	860.2347308338251	-447.96580237663835	6834.703834832425	844.6291384096457	-470.8732936750238	6836.736254887458	834.2019983285907	-486.2224522007673	6842.808821425088	825.2153130626166	-499.48359661203324
137	0.567	6921.0129	906.651	56.2195	7000.556020365218	892.4902459500622	4.596242848646929	6921.834607433057	490.2918485396432	-81.08201621270517	6915.372244057573	108.19798292467972	-158.35395461448067	6840.431931785163	32.41368474820238	0.30983691749850983	6849.810291525604	892.0650491747765	119.2082924340521	6786.7592010733715	488.31281892518314	211.9265485684764	6751.544163884813	56.928462254821895	298.3241707910326	6618.104548134744	-17.25302125965884	183.00119925724695	6881.2440672197345	1034.9372031177393	6.626151243141409	6836.126937182606	1104.5158058712857	-44.018652581464664	6784.653092052181	1171.3033228525992	-100.00020979240897	6729.116189786242	1225.3319563725422	-159.09077061402135	6669.1640637332075	1283.159023184712	-221.49504442406436	6613.132235939531	1335.466038261662	-277.4800699709106	6493.624352178947	1426.9439471408268	-330.78565588847397	6714.850326947338	1269.3063811909062	-220.914571948443	6796.840886040986	1288.4867529797405	-338.0775537166537	6825.240427945653	1018.7684922477442	-375.1955015914166	6894.502790661237	857.1515222333765	-532.6998109640701	6908.8923164519565	859.9608415055241	-554.4292563180007	6900.828307534759	858.5518400996623	-580.9682938769222	6894.566106785775	854.8499510442219	-599.0070701060888	6888.792580005173	849.4363942413288	-613.6662291872643	6910.227781078668	849.9722814368371	-554.5796703578734	6921.759736309088	831.0464240659187	-587.4806711916332	6917.325625514838	820.5118144236988	-611.739417886142	6907.3617816590195	819.094115692593	-625.3770393364513	6894.253261564042	821.382151889526	-635.6908490339233	6907.476024122814	843.3565436343667	-552.2943793852311	6917.239076434006	821.3176243303695	-583.1485225217782	6911.98452253917	809.0140172655404	-609.2130856403128	6899.763837953281	806.9157749091053	-625.4712725602188	6885.323667726111	809.2307622550086	-636.6616001817823	6905.362210482055	839.1171663524871	-549.8300520830669	6912.641399350325	815.5444460350385	-575.3125023745936	6907.619496516814	804.0297292947504	-597.5664188676138	6895.596924057733	801.5858354941588	-613.002288511357	6881.908272468186	803.56349595592	-623.4072281788025	6901.610440940182	835.159972445973	-546.116859604784	6906.395667075127	810.9313824257066	-567.17648190964	6901.6520535887785	800.5801681248238	-584.1615651200356	6892.533357863886	798.2506460397732	-595.0166205853478	6880.206363169375	799.6877645877581	-604.0012377979572	6662.412775730414	1259.0109586210394	-179.04677786653536	6581.06721779305	1183.4750565714228	-95.6356408333393	6710.723041785349	1025.1552593596598	-254.68607185932052	6874.7666189557685	899.1366942549046	-407.0208355591354	6862.113621328014	906.0393414636719	-439.9688480624353	6860.140771871462	893.4661077837186	-478.6617272687024	6858.0607108312115	882.1264005396135	-504.39119750445377	6855.722547942811	870.4626866132323	-524.8002727227571	6856.841616396345	898.6053733446615	-438.2080499361095	6833.669748846101	883.035833594749	-483.19592266056725	6825.982419799211	865.8198902832949	-516.7667525822351	6828.208140263245	854.9269600000723	-536.3801217895473	6834.775412196378	845.782867087814	-551.7658091775967	6856.128543376469	891.8167228609312	-433.4417944239521	6833.139289929883	872.9604983470457	-474.7428982384248	6824.742495441987	853.321264889983	-510.6033564278164	6827.4237417005625	839.7699121193982	-533.8957017737225	6834.607585835857	829.565578054266	-550.550332376722	6856.121157202191	887.4626571726934	-428.9044325779566	6835.234114987313	866.9151580729897	-461.9153871053599	6827.9441440429655	848.9546771554512	-492.31759377299727	6830.545679427785	835.4357189866598	-514.331435190745	6837.307545007363	825.6289652027934	-529.7760888371216	6857.531600324549	882.5424651907322	-422.54471102096585	6838.917717072436	860.8084574592924	-448.8421773487552	6833.216755044432	845.2007002199489	-471.71115823910395	6835.180391846575	834.7470180517548	-487.0541644341775	6841.208326740123	825.7186098358545	-500.32471084253314
